<?xml version="1.0" encoding="utf-8"?>
<!-- Generator: Adobe Illustrator 21.1.0, SVG Export Plug-In . SVG Version: 6.00 Build 0)  -->
<svg version="1.1" id="Layer_1" xmlns="http://www.w3.org/2000/svg" xmlns:xlink="http://www.w3.org/1999/xlink" x="0px" y="0px"
	 viewBox="0 0 128 128" style="enable-background:new 0 0 128 128;" xml:space="preserve">
<style type="text/css">
	.st0{fill-rule:evenodd;clip-rule:evenodd;fill:#3774CC;}
	.st1{fill-rule:evenodd;clip-rule:evenodd;fill:#CDD5DB;}
	.st2{fill:#092041;}
	.st3{fill:#FFFFFF;}
	.st4{fill:#1AA5E2;}
	.st5{fill:#3774CC;}
	.st6{fill:none;}
	.st7{fill:#CDD5DB;}
	.st8{fill-rule:evenodd;clip-rule:evenodd;fill:#092041;}
	.st9{fill:#1D3A65;}
	.st10{fill:#9BABB8;}
	.st11{fill:#DADEE0;}
	.st12{fill-rule:evenodd;clip-rule:evenodd;fill:#FFFFFF;}
	.st13{fill-rule:evenodd;clip-rule:evenodd;fill:#1AA5E2;}
	.st14{fill:#0075D0;}
	.st15{fill:#76C9EE;}
	.st16{fill:#001A40;}
	.st17{fill:#86DCF4;}
	.st18{fill:#A3DBF3;}
	.st19{fill:none;stroke:#092041;stroke-width:1.7067;stroke-miterlimit:10;}
	.st20{fill:#F2F2F2;}
	.st21{opacity:0.3;}
	.st22{fill:#4B5E6D;}
	.st23{fill:#00A7E5;}
	.st24{fill:#E6E6E6;}
	.st25{fill:#6A8294;}
	.st26{fill:#3974CC;}
	.st27{fill:#CCCCCC;}
	.st28{clip-path:url(#SVGID_2_);}
</style>
<g>
	<g>
		<g>
			<path id="XMLID_11_" class="st16" d="M106.2,101.8c1.5,9.6-5.9,17.2-14,18.1c-8.6,0.9-16.8-4.7-17.9-14.3
				c-1.1-9.3,5.3-16.8,14.1-17.9C96.8,86.6,105.2,92.3,106.2,101.8z"/>
			<path id="XMLID_2_" class="st3" d="M90.4,87.5c7.7,0,14.9,5.5,15.8,14.2c1.5,9.6-5.9,17.2-14,18.1c-0.6,0.1-1.2,0.1-1.9,0.1
				c-7.9,0-15-5.5-16.1-14.4c-1.1-9.3,5.3-16.8,14.1-17.9C89,87.6,89.7,87.5,90.4,87.5 M90.4,85.2L90.4,85.2c-0.8,0-1.6,0-2.3,0.1
				C77.7,86.7,70.8,95.5,72,105.9c1.1,9.5,8.8,16.5,18.4,16.5c0.7,0,1.4,0,2.1-0.1c4.9-0.5,9.5-3.1,12.6-7.1c3-3.9,4.2-8.7,3.5-13.6
				C107.5,92.2,99.7,85.2,90.4,85.2L90.4,85.2z"/>
		</g>
		<path id="XMLID_201_" class="st3" d="M88,111.3c-1.3,0.1-2.5,0.3-3.8,0.4c0-0.1,0-0.1,0-0.2c0-0.6,0.1-1.3,0.1-1.9
			c0-0.1,0-0.2,0.2-0.2c0.4,0,0.8-0.1,1.2-0.1c0.5-0.1,0.7-0.3,0.6-0.8c-0.3-2.8-0.7-5.5-1-8.3c-0.1-0.5-0.5-0.8-1-0.8
			c-0.5,0-1,0.1-1.4,0.1c-0.1,0-0.2,0-0.2-0.1c-0.1-0.6-0.1-1.2-0.2-1.8c0,0,0-0.1,0-0.1c0.5-0.1,1-0.1,1.4-0.2
			c0.7-0.1,1.4-0.2,2.1-0.3c0.1,0,0.2-0.1,0.2-0.2c-0.1-0.9-0.2-1.8-0.3-2.7c0-0.2,0-0.2,0.2-0.2c0.5,0,1-0.1,1.5-0.2
			c0.2,0,0.2,0,0.2,0.2c0.1,0.9,0.2,1.8,0.3,2.6c0,0.2,0.1,0.2,0.2,0.2c0.3-0.1,0.7-0.1,1-0.1c0.2,0,0.2,0,0.2-0.3
			c-0.1-0.9-0.2-1.7-0.3-2.6c0-0.2,0-0.2,0.2-0.2c0.5-0.1,1-0.1,1.5-0.2c0.2,0,0.2,0,0.2,0.2c0.1,0.9,0.2,1.8,0.3,2.7
			c0,0.2,0.1,0.3,0.3,0.2c0.7,0,1.5,0,2.2,0.2c0.8,0.2,1.6,0.6,2,1.3c0.6,1,0.8,2.2,0.3,3.3c-0.2,0.4-0.5,0.7-0.8,1
			c-0.1,0.1-0.1,0.1-0.2,0.2c0.2,0,0.4,0.1,0.5,0.1c0.8,0.2,1.6,0.6,2,1.3c0.3,0.5,0.5,1.1,0.5,1.6c0.1,0.8,0.1,1.5-0.2,2.2
			c-0.3,0.8-0.9,1.4-1.6,1.9c-1,0.6-2,0.8-3.1,1c-0.2,0-0.2,0.1-0.2,0.3c0.1,0.9,0.2,1.8,0.3,2.7c0,0.2,0,0.2-0.2,0.3
			c-0.5,0-1,0.1-1.5,0.2c-0.2,0-0.2,0-0.2-0.2c-0.1-0.9-0.2-1.8-0.3-2.7c0-0.2-0.1-0.2-0.2-0.2c-0.4,0.1-0.8,0.1-1.3,0.1
			c0.1,0.5,0.1,0.9,0.2,1.3c0.1,0.5,0.1,1.1,0.2,1.6c0,0.1,0,0.2-0.2,0.2c-0.5,0.1-1,0.1-1.6,0.2c-0.1,0-0.2,0-0.2-0.2
			c-0.1-0.9-0.2-1.8-0.3-2.7C88,111.5,88,111.4,88,111.3z M89.7,108.8c0.1,0,0.1,0,0.2,0c0.9-0.1,1.8-0.2,2.7-0.5
			c0.6-0.2,1.1-0.4,1.6-0.8c0.9-0.8,0.7-2.2-0.3-2.8c-0.5-0.3-1-0.3-1.6-0.4c-0.9,0-1.9,0.1-2.8,0.2c-0.2,0-0.2,0.1-0.2,0.3
			c0.1,0.7,0.2,1.4,0.3,2.2C89.6,107.6,89.6,108.2,89.7,108.8z M91.8,102.1c0.1-0.1,0.4-0.2,0.6-0.4c0.9-0.6,0.9-1.9,0.1-2.6
			c-0.4-0.3-1-0.4-1.5-0.5c-0.8,0-1.5,0.1-2.3,0.2c-0.2,0-0.2,0.1-0.2,0.3c0.1,1,0.3,2,0.4,3c0.1,0.5,0.1,0.5,0.5,0.4
			C90.2,102.6,91,102.5,91.8,102.1z"/>
	</g>
	<g>
		<line class="st6" x1="56.8" y1="71.6" x2="82.8" y2="51.5"/>
		<path class="st2" d="M93.3,51.1L52.9,82.3c-1.1,0.8-2.7,0.6-3.5-0.4L49,81.3c-0.8-1.1-0.6-2.7,0.4-3.5l40.4-31.2
			c1.1-0.8,2.7-0.6,3.5,0.4l0.5,0.6C94.6,48.7,94.4,50.3,93.3,51.1z"/>
		<g>
			<defs>
				
					<rect id="SVGID_1_" x="4.9" y="13.5" transform="matrix(0.7909 -0.612 0.612 0.7909 -15.766 39.653)" width="90.4" height="58.7"/>
			</defs>
			<clipPath id="SVGID_2_">
				<use xlink:href="#SVGID_1_"  style="overflow:visible;"/>
			</clipPath>
			<g class="st28">
				<path class="st18" d="M62,70.6c-0.8-1.1-0.6-2.7,0.4-3.5l1.7-1.3c1.1-0.8,2.7-0.6,3.5,0.4l0.4,0.5l10.9-8.4l-8.4-10.8l1.4-1.1
					l8.4,10.8l4.4-3.4L68.7,33.3c-3.4-4.3-9.7-5.2-14-1.8l-10.2,7.9c-4.3,3.4-5.2,9.7-1.8,14L58.6,74l3.7-2.9L62,70.6z"/>
				
					<rect x="64.3" y="32.6" transform="matrix(0.7909 -0.612 0.612 0.7909 -10.4366 48.1317)" class="st5" width="1.8" height="13.5"/>
				
					<rect x="62" y="35.5" transform="matrix(0.7909 -0.612 0.612 0.7909 -15.2279 48.1561)" class="st5" width="1.8" height="21.7"/>
				<path class="st5" d="M64.1,65.8l-1.7,1.3c-1.1,0.8-1.3,2.4-0.4,3.5l0.4,0.5l5.6-4.3l-0.4-0.5C66.7,65.2,65.1,65,64.1,65.8z"/>
				
					<rect x="74.4" y="45.6" transform="matrix(0.7909 -0.612 0.612 0.7909 -16.3178 57.051)" class="st5" width="1.8" height="13.7"/>
			</g>
		</g>
		<g>
			<path class="st2" d="M13.4,31.6l8.5-9.7c3.6-4.1,10-4.6,14.1-0.9l22,19.3c4.1,3.6,4.6,10,0.9,14.1l-8.5,9.7
				c-3.6,4.1-10,4.6-14.1,0.9l-22-19.3C10.2,42.1,9.7,35.7,13.4,31.6z"/>
			<path class="st18" d="M40.5,62.5l-4-3.5c-1-0.9-1.1-2.5-0.2-3.5l1.4-1.6c0.9-1,2.5-1.1,3.5-0.2l4,3.5c1,0.9,1.1,2.5,0.2,3.5
				L44,62.3C43.1,63.3,41.5,63.4,40.5,62.5z"/>
			
				<rect x="32.8" y="20.8" transform="matrix(0.6593 -0.7519 0.7519 0.6593 -9.2684 34.7267)" class="st18" width="1.8" height="13.5"/>
			
				<rect x="46.3" y="31.2" transform="matrix(0.6593 -0.7519 0.7519 0.6593 -13.5573 48.8744)" class="st18" width="1.8" height="16.4"/>
			
				<rect x="31.8" y="24.1" transform="matrix(0.6593 -0.7519 0.7519 0.6593 -15.1225 36.497)" class="st18" width="1.8" height="21.7"/>
		</g>
	</g>
	<g>
		<g>
			<path id="XMLID_10_" class="st4" d="M107.5,73.2c-0.3,5.3-5,8.6-9.5,8.1c-4.7-0.5-8.5-4.4-8-9.6c0.5-5.1,4.7-8.4,9.5-8
				C104.2,64,108.1,68,107.5,73.2z"/>
			<path id="XMLID_1_" class="st3" d="M98.9,63.6c0.2,0,0.5,0,0.8,0c4.6,0.4,8.5,4.4,7.9,9.5c-0.3,5-4.5,8.2-8.7,8.2
				c-0.3,0-0.5,0-0.8,0c-4.7-0.5-8.5-4.4-8-9.6C90.5,66.8,94.3,63.6,98.9,63.6 M98.9,62.4L98.9,62.4c-5.3,0-9.5,3.9-10,9.2
				c-0.5,5.6,3.5,10.5,9.1,11c0.3,0,0.6,0,0.9,0c4.6,0,9.6-3.5,10-9.3c0.3-2.7-0.5-5.3-2.2-7.3c-1.7-2.1-4.2-3.4-6.9-3.6
				C99.4,62.4,99.1,62.4,98.9,62.4L98.9,62.4z"/>
		</g>
		<path id="XMLID_142_" class="st3" d="M96.8,76.2c-0.7-0.1-1.4-0.1-2.1-0.2c0,0,0-0.1,0-0.1c0.1-0.3,0.2-0.7,0.3-1
			c0-0.1,0-0.1,0.1-0.1c0.2,0,0.4,0,0.6,0.1c0.3,0,0.4-0.1,0.4-0.4c0.1-1.5,0.3-3,0.4-4.5c0-0.3-0.2-0.5-0.4-0.5
			c-0.3,0-0.5-0.1-0.8-0.1c-0.1,0-0.1,0-0.1-0.1c0-0.3,0.1-0.7,0.1-1c0,0,0,0,0-0.1c0.3,0,0.5,0,0.8,0.1c0.4,0,0.8,0.1,1.2,0.1
			c0.1,0,0.1,0,0.1-0.1c0-0.5,0.1-1,0.1-1.5c0-0.1,0-0.1,0.1-0.1c0.3,0,0.5,0.1,0.8,0.1c0.1,0,0.1,0,0.1,0.1c0,0.5-0.1,1-0.1,1.4
			c0,0.1,0,0.1,0.1,0.1c0.2,0,0.4,0,0.6,0c0.1,0,0.1,0,0.1-0.1c0-0.5,0.1-0.9,0.1-1.4c0-0.1,0-0.1,0.1-0.1c0.3,0,0.5,0.1,0.8,0.1
			c0.1,0,0.1,0,0.1,0.1c0,0.5-0.1,1-0.1,1.5c0,0.1,0,0.1,0.1,0.2c0.4,0.1,0.8,0.2,1.1,0.3c0.4,0.2,0.8,0.5,0.9,0.9
			c0.2,0.6,0.2,1.2-0.2,1.8c-0.1,0.2-0.3,0.3-0.5,0.5c0,0-0.1,0-0.1,0.1c0.1,0,0.2,0.1,0.3,0.1c0.4,0.2,0.8,0.5,0.9,0.9
			c0.1,0.3,0.1,0.6,0.1,0.9c0,0.4-0.1,0.8-0.4,1.2c-0.3,0.4-0.6,0.7-1.1,0.8c-0.6,0.2-1.2,0.2-1.8,0.2c-0.1,0-0.1,0-0.1,0.1
			c0,0.5-0.1,1-0.1,1.5c0,0.1,0,0.1-0.1,0.1c-0.3,0-0.5-0.1-0.8-0.1c-0.1,0-0.1,0-0.1-0.1c0-0.5,0.1-1,0.1-1.5c0-0.1,0-0.1-0.1-0.1
			c-0.2,0-0.5,0-0.7-0.1c0,0.2,0,0.5-0.1,0.7c0,0.3-0.1,0.6-0.1,0.9c0,0.1,0,0.1-0.1,0.1C97.3,78,97,78,96.7,78
			c-0.1,0-0.1,0-0.1-0.1c0-0.5,0.1-1,0.1-1.5C96.8,76.3,96.8,76.3,96.8,76.2z M98,75.1C98,75.1,98,75.1,98,75.1
			c0.6,0.1,1.1,0.1,1.6,0.1c0.3,0,0.6-0.1,0.9-0.2c0.6-0.3,0.6-1.1,0.1-1.5c-0.2-0.2-0.5-0.3-0.8-0.4c-0.5-0.1-1-0.1-1.5-0.2
			c-0.1,0-0.1,0-0.1,0.1c0,0.4-0.1,0.8-0.1,1.2C98,74.4,98,74.7,98,75.1z M99.8,71.8c0.1,0,0.2-0.1,0.4-0.1c0.5-0.2,0.7-0.9,0.3-1.4
			c-0.2-0.2-0.5-0.3-0.8-0.4c-0.4-0.1-0.8-0.1-1.2-0.2c-0.1,0-0.1,0-0.1,0.1c0,0.6-0.1,1.1-0.1,1.7c0,0.3,0,0.3,0.2,0.3
			C98.9,71.8,99.3,71.8,99.8,71.8z"/>
	</g>
</g>
</svg>
