<?xml version="1.0" encoding="utf-8"?>
<!-- Generator: Adobe Illustrator 21.1.0, SVG Export Plug-In . SVG Version: 6.00 Build 0)  -->
<svg version="1.1" id="Layer_1" xmlns="http://www.w3.org/2000/svg" xmlns:xlink="http://www.w3.org/1999/xlink" x="0px" y="0px"
	 viewBox="0 0 128 128" style="enable-background:new 0 0 128 128;" xml:space="preserve">
<style type="text/css">
	.st0{fill-rule:evenodd;clip-rule:evenodd;fill:#3774CC;}
	.st1{fill-rule:evenodd;clip-rule:evenodd;fill:#CDD5DB;}
	.st2{fill:#092041;}
	.st3{fill:#FFFFFF;}
	.st4{fill:#1AA5E2;}
	.st5{fill:#3774CC;}
	.st6{fill:none;}
	.st7{fill:#CDD5DB;}
	.st8{fill-rule:evenodd;clip-rule:evenodd;fill:#092041;}
	.st9{fill:#1D3A65;}
	.st10{fill:#9BABB8;}
	.st11{fill:#DADEE0;}
	.st12{fill-rule:evenodd;clip-rule:evenodd;fill:#FFFFFF;}
	.st13{fill-rule:evenodd;clip-rule:evenodd;fill:#1AA5E2;}
	.st14{fill:#0075D0;}
	.st15{fill:#76C9EE;}
	.st16{fill:#001A40;}
	.st17{fill:#86DCF4;}
	.st18{fill:#A3DBF3;}
	.st19{fill:none;stroke:#092041;stroke-width:1.7067;stroke-miterlimit:10;}
	.st20{fill:#F2F2F2;}
	.st21{opacity:0.3;}
	.st22{fill:#4B5E6D;}
	.st23{fill:#00A7E5;}
	.st24{fill:#E6E6E6;}
	.st25{fill:#6A8294;}
	.st26{fill:#3974CC;}
	.st27{fill:#CCCCCC;}
	.st28{clip-path:url(#SVGID_2_);}
</style>
<g>
	<g>
		<g>
			<path class="st18" d="M67.9,61.2c-16.6-0.3-32,1.7-43.3,5.2C14,69.6,6.9,74.2,5.8,79.4c-2.2,10.7,21.9,19.9,54,20.6
				c16.3,0.3,31.4-1.6,42.7-5c10.9-3.3,18.3-7.9,19.4-13.2C124.1,71,100,61.8,67.9,61.2z"/>
		</g>
	</g>
	<g>
		<g>
			<path class="st2" d="M37.8,72.7c7.6-0.1,14.1-2.1,15.2-4.6l-28.8,0.4C24.4,70.9,30.2,72.8,37.8,72.7z"/>
			<path class="st2" d="M53.2,64.9l-2.2,0c1.4,0.7,2.2,1.5,2.2,2.5v0.2"/>
			<path class="st2" d="M27.5,65.2l-3.2,0v3.2l0,0c0-0.1,0-0.3,0-0.4C24.5,67,25.6,66,27.5,65.2z"/>
			<path class="st2" d="M51,64.9l-23.5,0.3c-1.8,0.8-3,1.8-3.2,2.8c0,0.1,0,0.3,0,0.4L53,68.1c0.1-0.1,0.1-0.3,0.1-0.4
				C53.3,66.6,52.5,65.7,51,64.9z"/>
		</g>
		<g>
			<path class="st3" d="M39.6,60.1c-4.1,0-8,0.6-10.8,1.5c-2.6,0.9-4.4,2-4.6,3.3c-0.5,2.7,5.6,4.9,13.5,4.9c4.1,0,7.8-0.6,10.6-1.5
				c2.7-0.9,4.5-2.1,4.8-3.4C53.7,62.3,47.6,60.1,39.6,60.1z"/>
			<path class="st2" d="M39.6,61.1c6.8,0,11.2,1.5,12.3,2.9c0.3,0.4,0.3,0.6,0.3,0.8c-0.1,0.7-1.3,1.7-4.1,2.7
				c-2.8,0.9-6.5,1.4-10.3,1.4c-6.8,0-11.2-1.5-12.3-2.9c-0.3-0.4-0.3-0.6-0.3-0.8c0.1-0.7,1.2-1.7,4-2.6
				C32,61.6,35.8,61.1,39.6,61.1 M39.6,60.1c-4.1,0-8,0.6-10.8,1.5c-2.6,0.9-4.4,2-4.6,3.3c-0.5,2.7,5.6,4.9,13.5,4.9
				c4.1,0,7.8-0.6,10.6-1.5c2.7-0.9,4.5-2.1,4.8-3.4C53.7,62.3,47.6,60.1,39.6,60.1L39.6,60.1z"/>
		</g>
		<g>
			<path class="st2" d="M37.8,66c7.6-0.1,14.1-2.1,15.2-4.6l-28.8,0.4C24.4,64.2,30.2,66.1,37.8,66z"/>
			<path class="st2" d="M53.2,58.1l-2.2,0c1.4,0.7,2.2,1.5,2.2,2.5v0.2"/>
			<path class="st2" d="M27.5,58.4l-3.2,0v3.2l0,0c0-0.1,0-0.3,0-0.4C24.5,60.2,25.6,59.2,27.5,58.4z"/>
			<path class="st2" d="M51,58.1l-23.5,0.3c-1.8,0.8-3,1.8-3.2,2.8c0,0.1,0,0.3,0,0.4L53,61.3c0.1-0.1,0.1-0.3,0.1-0.4
				C53.3,59.9,52.5,58.9,51,58.1z"/>
		</g>
		<g>
			<path class="st3" d="M39.6,53.4c-4.1,0-8,0.6-10.8,1.5c-2.6,0.9-4.4,2-4.6,3.3c-0.5,2.7,5.6,4.9,13.5,4.9c4.1,0,7.8-0.6,10.6-1.5
				c2.7-0.9,4.5-2.1,4.8-3.4C53.7,55.6,47.6,53.4,39.6,53.4z"/>
			<path class="st2" d="M39.6,54.3c6.8,0,11.2,1.5,12.3,2.9c0.3,0.4,0.3,0.6,0.3,0.8c-0.1,0.7-1.3,1.7-4.1,2.7
				c-2.8,0.9-6.5,1.4-10.3,1.4c-6.8,0-11.2-1.5-12.3-2.9c-0.3-0.4-0.3-0.6-0.3-0.8c0.1-0.7,1.2-1.7,4-2.6
				C32,54.9,35.8,54.3,39.6,54.3 M39.6,53.4c-4.1,0-8,0.6-10.8,1.5c-2.6,0.9-4.4,2-4.6,3.3c-0.5,2.7,5.6,4.9,13.5,4.9
				c4.1,0,7.8-0.6,10.6-1.5c2.7-0.9,4.5-2.1,4.8-3.4C53.7,55.6,47.6,53.4,39.6,53.4L39.6,53.4z"/>
		</g>
		<g>
			<path class="st5" d="M36.4,59.2c7.6-0.1,14.1-2.1,15.2-4.6l-28.8,0.4C23,57.4,28.9,59.3,36.4,59.2z"/>
			<path class="st5" d="M51.8,51.3l-2.2,0c1.4,0.7,2.2,1.5,2.2,2.5V54"/>
			<path class="st5" d="M26.1,51.7l-3.2,0v3.2l0,0c0-0.1,0-0.3,0-0.4C23.1,53.5,24.3,52.5,26.1,51.7z"/>
			<path class="st5" d="M49.6,51.4l-23.5,0.3c-1.8,0.8-3,1.8-3.2,2.8c0,0.1,0,0.3,0,0.4l28.8-0.4c0.1-0.1,0.1-0.3,0.1-0.4
				C52,53.1,51.2,52.1,49.6,51.4z"/>
		</g>
		<g>
			<path class="st3" d="M38.3,46.6c-4.1,0-8,0.6-10.8,1.5c-2.6,0.9-4.4,2-4.6,3.3c-0.5,2.7,5.6,4.9,13.5,4.9c4.1,0,7.8-0.6,10.6-1.5
				c2.7-0.9,4.5-2.1,4.8-3.4C52.3,48.8,46.3,46.6,38.3,46.6z"/>
			<path class="st5" d="M38.3,47.6c6.8,0,11.2,1.5,12.3,2.9c0.3,0.4,0.3,0.6,0.3,0.8c-0.1,0.7-1.3,1.7-4.1,2.7
				c-2.8,0.9-6.5,1.4-10.3,1.4c-6.8,0-11.2-1.5-12.3-2.9c-0.3-0.4-0.3-0.6-0.3-0.8c0.1-0.7,1.2-1.7,4-2.6
				C30.6,48.1,34.4,47.6,38.3,47.6 M38.3,46.6c-4.1,0-8,0.6-10.8,1.5c-2.6,0.9-4.4,2-4.6,3.3c-0.5,2.7,5.6,4.9,13.5,4.9
				c4.1,0,7.8-0.6,10.6-1.5c2.7-0.9,4.5-2.1,4.8-3.4C52.3,48.8,46.3,46.6,38.3,46.6L38.3,46.6z"/>
		</g>
		<g>
			<path class="st2" d="M68.9,72.7c7.6-0.1,14.1-2.1,15.2-4.6l-28.8,0.4C55.5,70.9,61.4,72.8,68.9,72.7z"/>
			<path class="st2" d="M84.3,64.9l-2.2,0c1.4,0.7,2.2,1.5,2.2,2.5v0.2"/>
			<path class="st2" d="M58.6,65.2l-3.2,0v3.2l0,0c0-0.1,0-0.3,0-0.4C55.6,67,56.8,66,58.6,65.2z"/>
			<path class="st2" d="M82.1,64.9l-23.5,0.3c-1.8,0.8-3,1.8-3.2,2.8c0,0.1,0,0.3,0,0.4l28.8-0.4c0.1-0.1,0.1-0.3,0.1-0.4
				C84.5,66.6,83.7,65.7,82.1,64.9z"/>
		</g>
		<g>
			<path class="st3" d="M70.8,60.1c-4.1,0-8,0.6-10.8,1.5c-2.6,0.9-4.4,2-4.6,3.3c-0.5,2.7,5.6,4.9,13.5,4.9c4.1,0,7.8-0.6,10.6-1.5
				c2.7-0.9,4.5-2.1,4.8-3.4C84.8,62.3,78.7,60.1,70.8,60.1z"/>
			<path class="st2" d="M70.8,61.1c6.8,0,11.2,1.5,12.3,2.9c0.3,0.4,0.3,0.6,0.3,0.8c-0.1,0.7-1.3,1.7-4.1,2.7
				c-2.8,0.9-6.5,1.4-10.3,1.4c-6.8,0-11.2-1.5-12.3-2.9c-0.3-0.4-0.3-0.6-0.3-0.8c0.1-0.7,1.2-1.7,4-2.6
				C63.1,61.6,66.9,61.1,70.8,61.1 M70.8,60.1c-4.1,0-8,0.6-10.8,1.5c-2.6,0.9-4.4,2-4.6,3.3c-0.5,2.7,5.6,4.9,13.5,4.9
				c4.1,0,7.8-0.6,10.6-1.5c2.7-0.9,4.5-2.1,4.8-3.4C84.8,62.3,78.7,60.1,70.8,60.1L70.8,60.1z"/>
		</g>
		<g>
			<path class="st2" d="M68.9,66c7.6-0.1,14.1-2.1,15.2-4.6l-28.8,0.4C55.5,64.2,61.4,66.1,68.9,66z"/>
			<path class="st2" d="M84.3,58.1l-2.2,0c1.4,0.7,2.2,1.5,2.2,2.5v0.2"/>
			<path class="st2" d="M58.6,58.4l-3.2,0v3.2l0,0c0-0.1,0-0.3,0-0.4C55.6,60.2,56.8,59.2,58.6,58.4z"/>
			<path class="st2" d="M82.1,58.1l-23.5,0.3c-1.8,0.8-3,1.8-3.2,2.8c0,0.1,0,0.3,0,0.4l28.8-0.4c0.1-0.1,0.1-0.3,0.1-0.4
				C84.5,59.9,83.7,58.9,82.1,58.1z"/>
		</g>
		<g>
			<path class="st3" d="M70.8,53.4c-4.1,0-8,0.6-10.8,1.5c-2.6,0.9-4.4,2-4.6,3.3c-0.5,2.7,5.6,4.9,13.5,4.9c4.1,0,7.8-0.6,10.6-1.5
				c2.7-0.9,4.5-2.1,4.8-3.4C84.8,55.6,78.7,53.4,70.8,53.4z"/>
			<path class="st2" d="M70.8,54.3c6.8,0,11.2,1.5,12.3,2.9c0.3,0.4,0.3,0.6,0.3,0.8c-0.1,0.7-1.3,1.7-4.1,2.7
				c-2.8,0.9-6.5,1.4-10.3,1.4c-6.8,0-11.2-1.5-12.3-2.9c-0.3-0.4-0.3-0.6-0.3-0.8c0.1-0.7,1.2-1.7,4-2.6
				C63.1,54.9,66.9,54.3,70.8,54.3 M70.8,53.4c-4.1,0-8,0.6-10.8,1.5c-2.6,0.9-4.4,2-4.6,3.3c-0.5,2.7,5.6,4.9,13.5,4.9
				c4.1,0,7.8-0.6,10.6-1.5c2.7-0.9,4.5-2.1,4.8-3.4C84.8,55.6,78.7,53.4,70.8,53.4L70.8,53.4z"/>
		</g>
		<g>
			<path class="st2" d="M68.9,59.2c7.6-0.1,14.1-2.1,15.2-4.6l-28.8,0.4C55.5,57.4,61.4,59.3,68.9,59.2z"/>
			<path class="st2" d="M84.3,51.3l-2.2,0c1.4,0.7,2.2,1.5,2.2,2.5V54"/>
			<path class="st2" d="M58.6,51.7l-3.2,0v3.2l0,0c0-0.1,0-0.3,0-0.4C55.6,53.5,56.8,52.5,58.6,51.7z"/>
			<path class="st2" d="M82.1,51.4l-23.5,0.3c-1.8,0.8-3,1.8-3.2,2.8c0,0.1,0,0.3,0,0.4l28.8-0.4c0.1-0.1,0.1-0.3,0.1-0.4
				C84.5,53.1,83.7,52.1,82.1,51.4z"/>
		</g>
		<g>
			<path class="st3" d="M70.8,46.6c-4.1,0-8,0.6-10.8,1.5c-2.6,0.9-4.4,2-4.6,3.3c-0.5,2.7,5.6,4.9,13.5,4.9c4.1,0,7.8-0.6,10.6-1.5
				c2.7-0.9,4.5-2.1,4.8-3.4C84.8,48.8,78.7,46.6,70.8,46.6z"/>
			<path class="st2" d="M70.8,47.6c6.8,0,11.2,1.5,12.3,2.9c0.3,0.4,0.3,0.6,0.3,0.8c-0.1,0.7-1.3,1.7-4.1,2.7
				c-2.8,0.9-6.5,1.4-10.3,1.4c-6.8,0-11.2-1.5-12.3-2.9c-0.3-0.4-0.3-0.6-0.3-0.8c0.1-0.7,1.2-1.7,4-2.6
				C63.1,48.1,66.9,47.6,70.8,47.6 M70.8,46.6c-4.1,0-8,0.6-10.8,1.5c-2.6,0.9-4.4,2-4.6,3.3c-0.5,2.7,5.6,4.9,13.5,4.9
				c4.1,0,7.8-0.6,10.6-1.5c2.7-0.9,4.5-2.1,4.8-3.4C84.8,48.8,78.7,46.6,70.8,46.6L70.8,46.6z"/>
		</g>
		<g>
			<g>
				<path class="st4" d="M68.9,52.4c7.6-0.1,14.1-2.1,15.2-4.6l-28.8,0.4C55.5,50.6,61.4,52.5,68.9,52.4z"/>
				<path class="st4" d="M84.3,44.6l-2.2,0c1.4,0.7,2.2,1.5,2.2,2.5v0.2"/>
				<path class="st4" d="M58.6,44.9l-3.2,0v3.2l0,0c0-0.1,0-0.3,0-0.4C55.6,46.7,56.8,45.7,58.6,44.9z"/>
				<path class="st4" d="M82.1,44.6l-23.5,0.3c-1.8,0.8-3,1.8-3.2,2.8c0,0.1,0,0.3,0,0.4l28.8-0.4c0.1-0.1,0.1-0.3,0.1-0.4
					C84.5,46.3,83.7,45.4,82.1,44.6z"/>
			</g>
			<g>
				<path class="st3" d="M70.8,39.8c-4.1,0-8,0.6-10.8,1.5c-2.6,0.9-4.4,2-4.6,3.3c-0.5,2.7,5.6,4.9,13.5,4.9
					c4.1,0,7.8-0.6,10.6-1.5c2.7-0.9,4.5-2.1,4.8-3.4C84.8,42,78.7,39.8,70.8,39.8z"/>
				<path class="st4" d="M70.8,40.7c6.8,0,11.2,1.5,12.4,3c0.3,0.4,0.3,0.7,0.3,0.8c-0.1,0.7-1.3,1.8-4.2,2.7
					c-2.8,0.9-6.5,1.4-10.3,1.4c-6.8,0-11.2-1.5-12.4-3c-0.3-0.4-0.3-0.7-0.3-0.8c0.1-0.7,1.2-1.7,4-2.7
					C63.1,41.3,66.9,40.7,70.8,40.7 M70.8,39.8c-4.1,0-8,0.6-10.8,1.5c-2.6,0.9-4.4,2-4.6,3.3c-0.5,2.7,5.6,4.9,13.5,4.9
					c4.1,0,7.8-0.6,10.6-1.5c2.7-0.9,4.5-2.1,4.8-3.4C84.8,42,78.7,39.8,70.8,39.8L70.8,39.8z"/>
			</g>
		</g>
		<g>
			<g>
				<path class="st5" d="M68.9,45.7c7.6-0.1,14.1-2.1,15.2-4.6l-28.8,0.4C55.5,43.9,61.4,45.8,68.9,45.7z"/>
				<path class="st5" d="M84.3,37.8l-2.2,0c1.4,0.7,2.2,1.5,2.2,2.5v0.2"/>
				<path class="st5" d="M58.6,38.1l-3.2,0v3.2l0,0c0-0.1,0-0.3,0-0.4C55.6,39.9,56.8,38.9,58.6,38.1z"/>
				<path class="st5" d="M82.1,37.8l-23.5,0.3c-1.8,0.8-3,1.8-3.2,2.8c0,0.1,0,0.3,0,0.4L84.1,41c0.1-0.1,0.1-0.3,0.1-0.4
					C84.5,39.6,83.7,38.6,82.1,37.8z"/>
			</g>
			<g>
				<path class="st3" d="M70.8,33.1c-4.1,0-8,0.6-10.8,1.5c-2.6,0.9-4.4,2-4.6,3.3c-0.5,2.7,5.6,4.9,13.5,4.9
					c4.1,0,7.8-0.6,10.6-1.5c2.7-0.9,4.5-2.1,4.8-3.4C84.8,35.3,78.7,33.1,70.8,33.1z"/>
				<path class="st5" d="M70.8,34c6.8,0,11.2,1.5,12.3,2.9c0.3,0.4,0.3,0.6,0.3,0.8c-0.1,0.7-1.3,1.7-4.1,2.7
					c-2.8,0.9-6.5,1.4-10.3,1.4c-6.8,0-11.2-1.5-12.3-2.9c-0.3-0.4-0.3-0.6-0.3-0.8c0.1-0.7,1.2-1.7,4-2.6
					C63.1,34.6,66.9,34,70.8,34 M70.8,33.1c-4.1,0-8,0.6-10.8,1.5c-2.6,0.9-4.4,2-4.6,3.3c-0.5,2.7,5.6,4.9,13.5,4.9
					c4.1,0,7.8-0.6,10.6-1.5c2.7-0.9,4.5-2.1,4.8-3.4C84.8,35.3,78.7,33.1,70.8,33.1L70.8,33.1z"/>
			</g>
		</g>
		<g>
			<g>
				<path class="st2" d="M71.6,38.9c7.1-0.1,13.2-2,14.2-4.3L59,34.9C59.1,37.2,64.5,39,71.6,38.9z"/>
				<path class="st2" d="M85.9,31.6l-2,0c1.3,0.6,2,1.4,2,2.3v0.2"/>
				<path class="st2" d="M62,31.9l-3,0v3l0,0c0-0.1,0-0.3,0-0.4C59.2,33.5,60.3,32.6,62,31.9z"/>
				<path class="st2" d="M83.9,31.6l-22,0.3c-1.7,0.8-2.8,1.7-3,2.7c0,0.1,0,0.3,0,0.4l26.8-0.3c0.1-0.1,0.1-0.3,0.1-0.4
					C86.1,33.2,85.3,32.3,83.9,31.6z"/>
			</g>
			<g>
				<path class="st3" d="M73.3,27.2c-3.9,0-7.4,0.5-10,1.4c-2.4,0.8-4.1,1.9-4.3,3.1c-0.5,2.5,5.2,4.5,12.6,4.5
					c3.8,0,7.3-0.5,9.9-1.4c2.5-0.8,4.2-1.9,4.4-3.2C86.4,29.2,80.8,27.2,73.3,27.2z"/>
				<path class="st2" d="M73.3,28.1c6,0,10.3,1.4,11.5,2.7c0.3,0.3,0.3,0.5,0.2,0.7c-0.1,0.6-1.2,1.6-3.8,2.4
					c-2.6,0.9-6,1.3-9.6,1.3c-6,0-10.3-1.4-11.5-2.7c-0.3-0.3-0.3-0.5-0.2-0.7c0.1-0.6,1.1-1.5,3.7-2.4
					C66.2,28.6,69.7,28.1,73.3,28.1 M73.3,27.2c-3.9,0-7.4,0.5-10,1.4c-2.4,0.8-4.1,1.9-4.3,3.1c-0.5,2.5,5.2,4.5,12.6,4.5
					c3.8,0,7.3-0.5,9.9-1.4c2.5-0.8,4.2-1.9,4.4-3.2C86.4,29.2,80.8,27.2,73.3,27.2L73.3,27.2z"/>
			</g>
		</g>
		<g>
			<path class="st2" d="M92.9,85.3c7.6-0.1,14.1-2.1,15.2-4.6L79.3,81C79.5,83.5,85.3,85.4,92.9,85.3z"/>
			<path class="st2" d="M108.2,77.5l-2.2,0c1.4,0.7,2.2,1.5,2.2,2.5v0.2"/>
			<path class="st2" d="M82.5,77.8l-3.2,0V81l0,0c0-0.1,0-0.3,0-0.4C79.5,79.6,80.7,78.6,82.5,77.8z"/>
			<path class="st2" d="M106.1,77.5l-23.5,0.3c-1.8,0.8-3,1.8-3.2,2.8c0,0.1,0,0.3,0,0.4l28.8-0.4c0.1-0.1,0.1-0.3,0.1-0.4
				C108.4,79.2,107.6,78.3,106.1,77.5z"/>
		</g>
		<g>
			<path class="st3" d="M94.7,72.7c-4.1,0-8,0.6-10.8,1.5c-2.6,0.9-4.4,2-4.6,3.3c-0.5,2.7,5.6,4.9,13.5,4.9c4.1,0,7.8-0.6,10.6-1.5
				c2.7-0.9,4.5-2.1,4.8-3.4C108.8,74.9,102.7,72.7,94.7,72.7z"/>
			<path class="st2" d="M94.7,73.7c6.8,0,11.2,1.5,12.3,2.9c0.3,0.4,0.3,0.6,0.3,0.8c-0.1,0.7-1.3,1.7-4.1,2.7
				c-2.8,0.9-6.5,1.4-10.3,1.4c-6.8,0-11.2-1.5-12.3-2.9c-0.3-0.4-0.3-0.6-0.3-0.8c0.1-0.7,1.2-1.7,4-2.6
				C87.1,74.2,90.9,73.7,94.7,73.7 M94.7,72.7c-4.1,0-8,0.6-10.8,1.5c-2.6,0.9-4.4,2-4.6,3.3c-0.5,2.7,5.6,4.9,13.5,4.9
				c4.1,0,7.8-0.6,10.6-1.5c2.7-0.9,4.5-2.1,4.8-3.4C108.8,74.9,102.7,72.7,94.7,72.7L94.7,72.7z"/>
		</g>
		<g>
			<g>
				<path class="st2" d="M92.9,78.6c7.6-0.1,14.1-2.1,15.2-4.6l-28.8,0.4C79.5,76.8,85.3,78.7,92.9,78.6z"/>
				<path class="st2" d="M108.2,70.7l-2.2,0c1.4,0.7,2.2,1.5,2.2,2.5v0.2"/>
				<path class="st2" d="M82.5,71l-3.2,0v3.2l0,0c0-0.1,0-0.3,0-0.4C79.5,72.8,80.7,71.8,82.5,71z"/>
				<path class="st2" d="M106.1,70.7L82.5,71c-1.8,0.8-3,1.8-3.2,2.8c0,0.1,0,0.3,0,0.4l28.8-0.4c0.1-0.1,0.1-0.3,0.1-0.4
					C108.4,72.5,107.6,71.5,106.1,70.7z"/>
			</g>
			<g>
				<path class="st3" d="M94.7,66c-4.1,0-8,0.6-10.8,1.5c-2.6,0.9-4.4,2-4.6,3.3c-0.5,2.7,5.6,4.9,13.5,4.9c4.1,0,7.8-0.6,10.6-1.5
					c2.7-0.9,4.5-2.1,4.8-3.4C108.8,68.1,102.7,66,94.7,66z"/>
				<path class="st2" d="M94.7,66.9c6.8,0,11.2,1.5,12.3,2.9c0.3,0.4,0.3,0.6,0.3,0.8c-0.1,0.7-1.3,1.7-4.1,2.7
					c-2.8,0.9-6.5,1.4-10.3,1.4c-6.8,0-11.2-1.5-12.3-2.9c-0.3-0.4-0.3-0.6-0.3-0.8c0.1-0.7,1.2-1.7,4-2.6
					C87,67.5,90.9,66.9,94.7,66.9 M94.7,66c-4.1,0-8,0.6-10.8,1.5c-2.6,0.9-4.4,2-4.6,3.3c-0.5,2.7,5.6,4.9,13.5,4.9
					c4.1,0,7.8-0.6,10.6-1.5c2.7-0.9,4.5-2.1,4.8-3.4C108.8,68.1,102.7,66,94.7,66L94.7,66z"/>
			</g>
		</g>
		<g>
			<g>
				<path class="st4" d="M93.9,72.7c7.1-0.1,13.2-2,14.2-4.3l-26.9,0.3C81.4,71.1,86.8,72.8,93.9,72.7z"/>
				<path class="st4" d="M108.2,65.4l-2,0c1.3,0.6,2,1.4,2,2.3v0.2"/>
				<path class="st4" d="M84.2,65.7l-3,0v3l0,0c0-0.1,0-0.3,0-0.4C81.4,67.4,82.5,66.5,84.2,65.7z"/>
				<path class="st4" d="M106.2,65.4l-22,0.3c-1.7,0.8-2.8,1.7-3,2.7c0,0.1,0,0.3,0,0.4l26.9-0.3c0.1-0.1,0.1-0.3,0.1-0.4
					C108.4,67,107.6,66.2,106.2,65.4z"/>
			</g>
			<g>
				<path class="st3" d="M95.6,61c-3.9,0-7.4,0.5-10.1,1.4c-2.4,0.8-4.1,1.9-4.3,3.1c-0.5,2.5,5.2,4.5,12.7,4.5
					c3.8,0,7.3-0.5,9.9-1.4c2.5-0.8,4.2-1.9,4.4-3.2C108.7,63,103.1,61,95.6,61z"/>
				<path class="st4" d="M95.6,61.9c6.4,0,10.4,1.4,11.5,2.7c0.3,0.3,0.3,0.6,0.3,0.7c-0.1,0.6-1.2,1.6-3.8,2.5
					c-2.6,0.9-6.1,1.3-9.6,1.3c-6.4,0-10.4-1.4-11.5-2.7c-0.3-0.3-0.3-0.6-0.3-0.7c0.1-0.6,1.2-1.6,3.7-2.4
					C88.4,62.4,92,61.9,95.6,61.9 M95.6,61c-3.9,0-7.4,0.5-10.1,1.4c-2.4,0.8-4.1,1.9-4.3,3.1c-0.5,2.5,5.2,4.5,12.7,4.5
					c3.8,0,7.3-0.5,9.9-1.4c2.5-0.8,4.2-1.9,4.4-3.2C108.7,63,103.1,61,95.6,61L95.6,61z"/>
			</g>
		</g>
		<g>
			<g>
				<path class="st2" d="M28,90.4c6.9,0.1,13-1.7,14-4l-26.3-0.2C15.8,88.5,21.1,90.3,28,90.4z"/>
				<path class="st2" d="M42.2,83.5l-2,0c1.2,0.7,2,1.4,1.9,2.3l0,0.2"/>
				<path class="st2" d="M18.7,83.3l-3,0l-0.1,2.9l0,0c0-0.1,0-0.2,0-0.4C15.9,84.9,17,84,18.7,83.3z"/>
				<path class="st2" d="M40.2,83.5l-21.5-0.2c-1.7,0.7-2.8,1.6-3,2.5c0,0.1,0,0.2,0,0.4L42,86.4c0.1-0.1,0.1-0.2,0.1-0.4
					C42.3,85.1,41.6,84.2,40.2,83.5z"/>
			</g>
			<g>
				<path class="st3" d="M29.9,78.9c-3.8-0.1-7.3,0.4-9.9,1.2c-2.4,0.7-4,1.8-4.3,3c-0.5,2.4,5,4.5,12.3,4.7
					c3.7,0.1,7.2-0.4,9.7-1.1c2.5-0.7,4.2-1.8,4.4-3C42.7,81.2,37.2,79.1,29.9,78.9z"/>
				<path class="st2" d="M29.1,79.9c0.3,0,0.5,0,0.8,0c5.9,0.1,10.1,1.5,11.2,2.9c0.3,0.4,0.2,0.6,0.2,0.7c-0.1,0.6-1.2,1.5-3.8,2.3
					c-2.4,0.7-5.4,1.1-8.6,1.1c-0.3,0-0.5,0-0.8,0c-5.9-0.1-10.1-1.5-11.2-2.9c-0.3-0.4-0.2-0.6-0.2-0.7c0.1-0.6,1.1-1.5,3.6-2.2
					C22.7,80.3,25.8,79.9,29.1,79.9 M29.1,78.9c-3.5,0-6.7,0.5-9.1,1.2c-2.4,0.7-4,1.8-4.3,3c-0.5,2.4,5,4.5,12.3,4.7
					c0.3,0,0.6,0,0.8,0c3.4,0,6.5-0.4,8.9-1.1c2.5-0.7,4.2-1.8,4.4-3c0.5-2.4-5-4.5-12.3-4.7C29.6,78.9,29.4,78.9,29.1,78.9
					L29.1,78.9z"/>
			</g>
		</g>
	</g>
	<g>
		<g>
			<path id="XMLID_12_" class="st16" d="M76.8,73c0.2,8.6-7,14.5-14.3,14.4c-7.7-0.1-14.3-6-14.2-14.6c0.1-8.3,6.5-14.2,14.4-14.2
				C70.2,58.6,77,64.6,76.8,73z"/>
			<path id="XMLID_3_" class="st3" d="M62.7,58.6c7.5,0,14.2,6,14.1,14.4c0.2,8.6-6.9,14.4-14.1,14.4c-0.1,0-0.1,0-0.2,0
				c-7.7-0.1-14.3-6-14.2-14.6C48.4,64.5,54.8,58.6,62.7,58.6C62.7,58.6,62.7,58.6,62.7,58.6 M62.8,56.1L62.8,56.1L62.8,56.1
				c-9.6,0-16.9,7.2-16.9,16.7c-0.1,9.5,7.2,17,16.7,17.1l0.2,0c4.5,0,8.9-1.9,12-5.1c3.1-3.2,4.7-7.4,4.6-11.8
				c0.1-4.5-1.6-8.7-4.7-11.9C71.6,57.9,67.2,56.1,62.8,56.1L62.8,56.1z"/>
		</g>
		<path id="XMLID_30_" class="st3" d="M59.8,79.3c-1.1,0-2.2,0-3.4,0c0-0.1,0-0.1,0-0.2c0.1-0.6,0.2-1.1,0.3-1.7
			c0-0.1,0.1-0.2,0.2-0.2c0.3,0,0.7,0,1,0c0.4,0,0.6-0.2,0.6-0.6c0-2.5,0-4.9,0-7.4c0-0.4-0.3-0.8-0.8-0.8c-0.4,0-0.8,0-1.3,0
			c-0.1,0-0.2,0-0.2-0.1c0-0.5,0-1.1,0-1.6c0,0,0-0.1,0-0.1c0.4,0,0.9,0,1.3,0c0.6,0,1.3,0,1.9,0c0.1,0,0.2,0,0.2-0.2
			c0-0.8,0-1.6,0-2.4c0-0.2,0-0.2,0.2-0.2c0.4,0,0.9,0,1.3,0c0.2,0,0.2,0,0.2,0.2c0,0.8,0,1.6,0,2.3c0,0.2,0.1,0.2,0.2,0.2
			c0.3,0,0.6,0,0.9,0c0.2,0,0.2,0,0.2-0.2c0-0.8,0-1.5,0-2.3c0-0.1,0-0.2,0.2-0.2c0.4,0,0.9,0,1.3,0c0.2,0,0.2,0,0.2,0.2
			c0,0.8,0,1.6,0,2.4c0,0.2,0.1,0.2,0.2,0.2c0.7,0.1,1.3,0.2,1.9,0.4c0.7,0.3,1.3,0.7,1.7,1.4c0.5,1,0.5,2-0.1,3
			c-0.2,0.3-0.5,0.6-0.8,0.8c-0.1,0-0.1,0.1-0.2,0.1c0.2,0.1,0.3,0.1,0.5,0.1c0.7,0.3,1.3,0.7,1.7,1.4c0.2,0.5,0.3,1,0.3,1.5
			c0,0.7-0.1,1.3-0.4,2c-0.4,0.7-0.9,1.2-1.6,1.5c-0.9,0.4-1.8,0.5-2.8,0.6c-0.2,0-0.2,0-0.2,0.2c0,0.8,0,1.6,0,2.4
			c0,0.2,0,0.2-0.2,0.2c-0.4,0-0.9,0-1.3,0c-0.2,0-0.2-0.1-0.2-0.2c0-0.8,0-1.6,0-2.4c0-0.1,0-0.2-0.2-0.2c-0.4,0-0.7,0-1.1,0
			c0,0.4,0,0.8,0,1.2c0,0.5,0,0.9,0,1.4c0,0.1,0,0.2-0.2,0.2c-0.5,0-0.9,0-1.4,0c-0.1,0-0.2,0-0.2-0.2c0-0.8,0-1.6,0-2.4
			C59.8,79.5,59.8,79.4,59.8,79.3z M61.6,77.3c0.1,0,0.1,0,0.1,0c0.8,0,1.6,0,2.4-0.1c0.5-0.1,1-0.2,1.5-0.5c0.9-0.6,0.9-1.9,0-2.5
			c-0.4-0.3-0.9-0.4-1.4-0.5c-0.8-0.1-1.6-0.1-2.5-0.1c-0.2,0-0.2,0-0.2,0.2c0,0.6,0,1.3,0,1.9C61.6,76.3,61.6,76.8,61.6,77.3z
			 M64.1,71.7c0.1-0.1,0.4-0.1,0.6-0.3c0.8-0.4,1-1.6,0.3-2.2c-0.3-0.4-0.8-0.5-1.3-0.6c-0.7-0.1-1.4-0.1-2-0.1
			c-0.2,0-0.2,0.1-0.2,0.2c0,0.9,0,1.8,0,2.7c0,0.4,0,0.4,0.4,0.4C62.7,71.9,63.3,71.9,64.1,71.7z"/>
	</g>
</g>
</svg>
